Coordinates
version=1
nRows=24
nColumns=38
inDegrees=no

Units are S.I. units (second, meters, Newtons, ...)
If the header above contains a line with 'inDegrees', this indicates whether rotational values are in degrees (yes) or radians (no).

endheader
time	pelvis_tilt	pelvis_list	pelvis_rotation	pelvis_tx	pelvis_ty	pelvis_tz	hip_flexion_r	hip_adduction_r	hip_rotation_r	knee_angle_r	ankle_angle_r	subtalar_angle_r	mtp_angle_r	hip_flexion_l	hip_adduction_l	hip_rotation_l	knee_angle_l	ankle_angle_l	subtalar_angle_l	mtp_angle_l	lumbar_extension	lumbar_bending	lumbar_rotation	arm_flex_r	arm_add_r	arm_rot_r	elbow_flex_r	pro_sup_r	wrist_flex_r	wrist_dev_r	arm_flex_l	arm_add_l	arm_rot_l	elbow_flex_l	pro_sup_l	wrist_flex_l	wrist_dev_l
0.66	2.20031	1.48221	-0.502039	0.712793	0.0128256	1.02815	0.35237	0.103528	0.0860929	0.657392	-0.197889	0	0	-0.160588	-0.225536	-0.254309	0.952295	-0.312206	0	0	-0.321082	0.147508	0.130915	0.0717198	-0.657165	0.879959	0.919743	0.565765	0	0	0.116135	-0.281219	0.513569	0.591615	1.03385	0	0
0.67	2.28471	1.4792	-0.587414	0.713208	0.0236465	1.03096	0.327652	0.100575	0.074749	0.649407	-0.197231	0	0	-0.136816	-0.232047	-0.245085	1.00995	-0.34329	0	0	-0.33215	0.145223	0.133431	0.0761761	-0.6598	0.885498	0.923564	0.556883	0	0	0.118184	-0.282995	0.512416	0.595291	1.03577	0	0
0.68	2.37915	1.47626	-0.682524	0.713553	0.0341545	1.03379	0.301881	0.0957535	0.0626132	0.641024	-0.195708	0	0	-0.113596	-0.235302	-0.234478	1.06421	-0.369706	0	0	-0.344106	0.141325	0.135695	0.079839	-0.662573	0.888433	0.928421	0.548738	0	0	0.120752	-0.286073	0.513043	0.600769	1.03584	0	0
0.69	2.47	1.47311	-0.774084	0.713879	0.04436	1.03653	0.2776	0.0903313	0.0494212	0.634598	-0.194382	0	0	-0.0903153	-0.236533	-0.223584	1.1145	-0.390024	0	0	-0.355793	0.136673	0.13844	0.082819	-0.666088	0.890094	0.93466	0.541939	0	0	0.123902	-0.289839	0.515145	0.607299	1.03486	0	0
0.7	2.55179	1.46956	-0.856825	0.714208	0.054299	1.03916	0.255015	0.0847321	0.0346229	0.629613	-0.193983	0	0	-0.0672765	-0.236578	-0.213214	1.16098	-0.391816	0	0	-0.367088	0.131778	0.141637	0.0856024	-0.670161	0.891175	0.941748	0.536505	0	0	0.127211	-0.294159	0.517749	0.615111	1.03262	0	0
0.71	2.6271	1.46486	-0.933215	0.714464	0.0641217	1.0418	0.231929	0.0798402	0.021043	0.62382	-0.194262	0	0	-0.0459011	-0.236294	-0.204858	1.20364	-0.371975	0	0	-0.378454	0.127372	0.145298	0.0876127	-0.674898	0.891032	0.949626	0.531412	0	0	0.130745	-0.298328	0.520802	0.623187	1.02959	0	0
0.72	2.69289	1.45913	-1.00029	0.714614	0.0739615	1.04443	0.208123	0.0758051	0.00894934	0.616916	-0.194898	0	0	-0.0261554	-0.235875	-0.199028	1.24165	-0.341956	0	0	-0.389466	0.123673	0.149384	0.0889049	-0.680043	0.890367	0.95771	0.526471	0	0	0.134383	-0.301872	0.524251	0.63064	1.02667	0	0
0.73	2.74631	1.45288	-1.05537	0.714682	0.0838461	1.04703	0.184003	0.0726125	-0.00158292	0.609158	-0.195396	0	0	-0.00740096	-0.235083	-0.195249	1.27387	-0.312563	0	0	-0.399626	0.120709	0.153989	0.0897309	-0.685093	0.889696	0.965096	0.521251	0	0	0.138126	-0.304475	0.52789	0.636793	1.02384	0	0
0.74	2.78675	1.44698	-1.09811	0.714755	0.0938146	1.04958	0.160324	0.0701345	-0.0101048	0.600649	-0.195896	0	0	0.0112222	-0.233615	-0.19259	1.29946	-0.287278	0	0	-0.408365	0.118137	0.158929	0.0907184	-0.689089	0.889496	0.970414	0.516157	0	0	0.141719	-0.305927	0.530902	0.641055	1.02201	0	0
0.75	2.81758	1.44214	-1.13194	0.714857	0.103866	1.05206	0.137379	0.0677984	-0.0173424	0.590937	-0.196671	0	0	0.0303662	-0.231393	-0.190442	1.31835	-0.26548	0	0	-0.415402	0.115462	0.164078	0.0920779	-0.691705	0.890016	0.973337	0.512172	0	0	0.145154	-0.306335	0.533323	0.643178	1.02133	0	0
0.76	2.84588	1.43814	-1.16441	0.715078	0.113895	1.05451	0.115053	0.0651046	-0.0229336	0.580551	-0.197982	0	0	0.0493721	-0.22823	-0.189045	1.33084	-0.245359	0	0	-0.421652	0.111867	0.169868	0.0939625	-0.693331	0.891101	0.974639	0.508501	0	0	0.148765	-0.306142	0.53534	0.643924	1.0215	0	0
0.77	2.87784	1.43465	-1.20173	0.715473	0.123772	1.05694	0.0935305	0.0616233	-0.026724	0.570539	-0.19956	0	0	0.0673133	-0.223707	-0.188548	1.3372	-0.227299	0	0	-0.428007	0.106614	0.176291	0.0966631	-0.694098	0.892656	0.974853	0.505726	0	0	0.152943	-0.305636	0.536892	0.643775	1.022	0	0
0.78	2.90669	1.43331	-1.23536	0.715794	0.133729	1.05915	0.0746848	0.0575822	-0.0319854	0.560699	-0.201368	0	0	0.0866928	-0.218089	-0.187225	1.33801	-0.212717	0	0	-0.431843	0.100659	0.181372	0.0998216	-0.692791	0.894904	0.97245	0.505974	0	0	0.156818	-0.304704	0.537455	0.641904	1.02282	0	0
0.79	2.93396	1.4333	-1.26705	0.716098	0.143661	1.06118	0.0579566	0.0532889	-0.0388337	0.550749	-0.204765	0	0	0.106514	-0.211524	-0.185216	1.33336	-0.197434	0	0	-0.434121	0.0942806	0.185748	0.102511	-0.690032	0.895551	0.968437	0.506142	0	0	0.160732	-0.303624	0.537389	0.639165	1.02398	0	0
0.8	2.96137	1.43404	-1.29887	0.716419	0.153488	1.06308	0.043081	0.0486761	-0.0463252	0.541659	-0.208865	0	0	0.125976	-0.20384	-0.182552	1.32297	-0.184636	0	0	-0.435731	0.0875396	0.189538	0.10497	-0.686415	0.894058	0.963628	0.504884	0	0	0.164662	-0.30267	0.536873	0.63614	1.02506	0	0
0.81	2.99085	1.43475	-1.33242	0.716665	0.163233	1.06485	0.0295969	0.0437288	-0.0528641	0.535585	-0.211931	0	0	0.144162	-0.195063	-0.179215	1.30703	-0.172694	0	0	-0.437357	0.0806444	0.192758	0.107817	-0.682916	0.89311	0.959098	0.50408	0	0	0.168639	-0.301894	0.536357	0.633256	1.02607	0	0
0.82	3.02094	1.43551	-1.36623	0.716811	0.172897	1.06644	0.0164892	0.0385242	-0.059401	0.529783	-0.214964	0	0	0.161166	-0.185519	-0.175011	1.28603	-0.162448	0	0	-0.438869	0.0737663	0.195546	0.11107	-0.679406	0.893087	0.954351	0.503829	0	0	0.172736	-0.301255	0.536099	0.630339	1.02696	0	0
0.83	3.05113	1.43621	-1.39948	0.71681	0.182398	1.06786	0.00341892	0.0331101	-0.0659271	0.523344	-0.218201	0	0	0.177252	-0.175281	-0.169745	1.26035	-0.153795	0	0	-0.440547	0.067142	0.197618	0.114786	-0.675765	0.89376	0.949103	0.503797	0	0	0.177041	-0.300721	0.53621	0.627271	1.02723	0	0
0.84	3.07986	1.43688	-1.43088	0.716695	0.191772	1.0691	-0.00913219	0.0278512	-0.0722605	0.517317	-0.22109	0	0	0.192376	-0.16463	-0.163761	1.2302	-0.147473	0	0	-0.442436	0.0608397	0.198979	0.119428	-0.671846	0.895673	0.943019	0.504921	0	0	0.181188	-0.300273	0.536277	0.624075	1.02687	0	0
0.85	3.1065	1.43766	-1.45991	0.716472	0.201024	1.07013	-0.0206947	0.0230362	-0.0772528	0.512653	-0.223031	0	0	0.206631	-0.15367	-0.156992	1.19599	-0.142403	0	0	-0.44436	0.0549831	0.199637	0.124838	-0.667979	0.898365	0.936733	0.506731	0	0	0.184961	-0.300113	0.53649	0.621201	1.02686	0	0
0.86	3.13096	1.4389	-1.48644	0.71614	0.210158	1.07091	-0.0308783	0.0187447	-0.0803112	0.509639	-0.223696	0	0	0.220387	-0.142629	-0.149724	1.15825	-0.139009	0	0	-0.445912	0.0495468	0.199475	0.130642	-0.664055	0.900813	0.930608	0.508683	0	0	0.188166	-0.300243	0.536077	0.619104	1.02679	0	0
0.87	-3.12929	1.44053	-1.51101	0.715695	0.219179	1.07143	-0.0402187	0.0148066	-0.0819982	0.507284	-0.222971	0	0	0.233206	-0.131419	-0.141362	1.11784	-0.136802	0	0	-0.447154	0.0445933	0.198789	0.136302	-0.66098	0.902819	0.926152	0.510197	0	0	0.190983	-0.300752	0.535423	0.618246	1.02621	0	0
0.88	-3.10776	1.44213	-1.53371	0.715161	0.228111	1.07177	-0.0493301	0.0111659	-0.0826706	0.505144	-0.22177	0	0	0.244585	-0.120023	-0.131447	1.07531	-0.135197	0	0	-0.44836	0.0401637	0.197838	0.141655	-0.658904	0.90461	0.923467	0.511423	0	0	0.193608	-0.30181	0.535133	0.618831	1.0256	0	0
0.89	-3.08755	1.44372	-1.55469	0.714533	0.236956	1.07196	-0.0581907	0.00779964	-0.0825618	0.503283	-0.220374	0	0	0.254446	-0.1085	-0.120287	1.03104	-0.133758	0	0	-0.44967	0.0362647	0.196568	0.146556	-0.657578	0.905488	0.922216	0.512281	0	0	0.196093	-0.303364	0.535246	0.620722	1.02485	0	0
